<?xml version="1.0" encoding="UTF-8" standalone="no"?>
<!-- Created with Inkscape (http://www.inkscape.org/) -->

<svg
   xmlns:dc="http://purl.org/dc/elements/1.1/"
   xmlns:cc="http://creativecommons.org/ns#"
   xmlns:rdf="http://www.w3.org/1999/02/22-rdf-syntax-ns#"
   xmlns:svg="http://www.w3.org/2000/svg"
   xmlns="http://www.w3.org/2000/svg"
   xmlns:sodipodi="http://sodipodi.sourceforge.net/DTD/sodipodi-0.dtd"
   xmlns:inkscape="http://www.inkscape.org/namespaces/inkscape"
   width="3.4001315mm"
   height="3.3753419mm"
   viewBox="0 0 3.4001314 3.3753419"
   version="1.1"
   id="svg8"
   inkscape:version="0.92.2 (5c3e80d, 2017-08-06)"
   sodipodi:docname="kmd_b.svg">
  <defs
     id="defs2" />
  <sodipodi:namedview
     id="base"
     pagecolor="#ffffff"
     bordercolor="#666666"
     borderopacity="1.0"
     inkscape:pageopacity="0.0"
     inkscape:pageshadow="2"
     inkscape:zoom="1"
     inkscape:cx="-421.18366"
     inkscape:cy="-264.35564"
     inkscape:document-units="mm"
     inkscape:current-layer="layer1"
     showgrid="false"
     inkscape:window-width="1920"
     inkscape:window-height="1017"
     inkscape:window-x="1912"
     inkscape:window-y="-8"
     inkscape:window-maximized="1" />
  <metadata
     id="metadata5">
    <rdf:RDF>
      <cc:Work
         rdf:about="">
        <dc:format>image/svg+xml</dc:format>
        <dc:type
           rdf:resource="http://purl.org/dc/dcmitype/StillImage" />
        <dc:title></dc:title>
      </cc:Work>
    </rdf:RDF>
  </metadata>
  <g
     inkscape:label="Layer 1"
     inkscape:groupmode="layer"
     id="layer1"
     transform="translate(-91.027463,-135.99008)">
    <g
       id="g30265"
       transform="matrix(0.12788248,0,0,0.12788248,79.386645,121.54303)">
      <path
         style="fill:#b4c6c6;stroke-width:0.26458335"
         d="m 99.823512,137.62595 c -2.255573,-0.94618 -4.36041,-1.9795 -4.677415,-2.29627 -0.317006,-0.31678 -1.373383,-2.51151 -2.347505,-4.87719 l -1.77113,-4.30123 1.777737,-4.29773 c 0.977756,-2.36375 1.974602,-4.50167 2.215213,-4.75094 0.240611,-0.24927 2.424257,-1.29098 4.852546,-2.31491 3.889672,-1.64014 4.503642,-1.82819 5.159372,-1.58026 2.92801,1.10706 8.31084,3.54367 8.63084,3.90686 0.21396,0.24284 1.19074,2.3755 2.17062,4.73925 l 1.78161,4.29773 -1.77113,4.30123 c -0.97413,2.36568 -2.0305,4.56025 -2.34751,4.87682 -0.55172,0.55096 -8.64663,4.07482 -9.27092,4.03579 -0.16571,-0.0104 -2.14675,-0.79298 -4.402328,-1.73915 z m 7.304098,-4.89391 2.67389,-1.09721 1.11876,-2.72418 1.11877,-2.72418 -1.12252,-2.76624 -1.12253,-2.76624 -2.76292,-1.10415 c -1.51961,-0.60728 -2.9593,-1.03229 -3.1993,-0.94445 -0.24001,0.0878 -1.46134,0.59012 -2.71408,1.1162 l -2.277714,0.95651 -1.124578,2.73833 -1.124579,2.73834 1.128649,2.74825 1.12865,2.74824 2.538222,1.06705 c 1.39602,0.58687 2.65729,1.07692 2.80281,1.08899 0.14552,0.0121 1.46783,-0.4718 2.93847,-1.07526 z m -4.79056,-1.72579 c -1.94635,-0.80757 -1.99415,-0.85781 -2.90524,-3.05387 l -0.736094,-1.77427 0.742333,-1.79761 c 0.408284,-0.98868 0.870401,-1.92567 1.026921,-2.08219 0.15652,-0.15653 1.09351,-0.61864 2.08219,-1.02692 l 1.79761,-0.74234 1.77427,0.7361 c 0.97584,0.40485 1.90233,0.86696 2.05885,1.02692 0.15652,0.15995 0.61864,1.09975 1.02692,2.08843 l 0.74233,1.79761 -0.73609,1.77427 c -0.40485,0.97584 -0.86697,1.91327 -1.02692,2.08318 -0.33181,0.35245 -3.54254,1.68733 -3.97446,1.6524 -0.15682,-0.0127 -0.99949,-0.31945 -1.87262,-0.68171 z"
         id="path30283"
         inkscape:connector-curvature="0" />
      <path
         style="fill:#94b1b1;stroke-width:0.26458335"
         d="m 103.65997,139.10349 c -0.29104,-0.13169 -2.25557,-0.96313 -4.365624,-1.84764 -2.110053,-0.8845 -3.981195,-1.74995 -4.158095,-1.92322 -0.1769,-0.17327 -1.152615,-2.30487 -2.168255,-4.73689 l -1.846619,-4.42186 1.846156,-4.44051 c 1.015386,-2.44228 1.9911,-4.57935 2.168255,-4.74904 0.177155,-0.16969 2.32156,-1.1419 4.765346,-2.16046 l 4.443246,-1.85192 4.4203,1.84315 c 2.43116,1.01373 4.56995,1.99066 4.75287,2.17094 0.18292,0.18028 1.16685,2.32241 2.18651,4.76028 l 1.85392,4.43249 -1.76655,4.24518 c -0.9716,2.33485 -1.95552,4.47372 -2.1865,4.75305 -0.23098,0.27933 -2.26543,1.28189 -4.521,2.22791 -4.85379,2.03574 -4.75035,2.00335 -5.42396,1.69854 z m 5.86198,-7.30039 c 0.29763,-0.12608 2.4724,-5.07526 2.4724,-5.62652 0,-0.15194 -0.48877,-1.45961 -1.08615,-2.90593 l -1.08615,-2.62968 -2.60128,-1.07956 c -1.4307,-0.59376 -2.81717,-1.06977 -3.08104,-1.05779 -0.26387,0.012 -1.59249,0.51798 -2.95249,1.12447 l -2.472726,1.10272 -1.136904,2.77812 c -0.625296,1.52797 -1.049776,2.89719 -0.943289,3.04271 0.106488,0.14552 0.588202,1.27662 1.070477,2.51354 0.482275,1.23693 0.97659,2.36098 1.098478,2.49788 0.121887,0.1369 1.383574,0.73931 2.803734,1.33867 l 2.58213,1.08975 2.51354,-1.02943 c 1.38245,-0.56619 2.65112,-1.08772 2.81927,-1.15895 z m -7.22702,-0.9294 -1.89421,-0.7924 -0.800273,-1.96488 -0.800269,-1.96489 0.811062,-1.94311 0.81106,-1.94311 1.96513,-0.8089 1.96514,-0.80889 1.94563,0.79242 1.94563,0.79243 0.81153,1.99254 0.81154,1.99255 -0.8058,1.93559 -0.80579,1.9356 -1.94855,0.81118 c -1.0717,0.44615 -1.98659,0.80108 -2.03308,0.78873 -0.0465,-0.0123 -0.93694,-0.37904 -1.97875,-0.81486 z"
         id="path30281"
         inkscape:connector-curvature="0" />
      <path
         style="fill:#fec72a;stroke-width:0.26458335"
         d="m 99.939634,137.41194 c -3.609137,-1.51694 -4.57347,-2.03333 -5.005254,-2.68025 -0.294155,-0.44072 -1.238489,-2.54489 -2.098522,-4.67594 l -1.563696,-3.87463 1.143429,-2.85745 c 1.235645,-3.08789 2.275742,-5.53972 2.609763,-6.15201 0.115261,-0.21128 2.25886,-1.24279 4.763553,-2.29224 l 4.553993,-1.90809 4.42103,1.84346 c 2.43157,1.0139 4.55918,1.98588 4.72801,2.15995 0.16884,0.17407 1.13704,2.3143 2.15156,4.75607 l 1.8446,4.43959 -1.84385,4.42396 c -1.01412,2.43317 -1.98232,4.56242 -2.15157,4.73166 -0.16924,0.16924 -2.28206,1.13057 -4.69516,2.13629 l -4.38746,1.82857 z m 7.234766,-4.54641 c 1.26852,-0.53465 2.44317,-1.10243 2.61033,-1.26174 0.16716,-0.15931 0.78274,-1.44657 1.36796,-2.86058 l 1.06404,-2.57093 -1.14353,-2.72073 -1.14353,-2.72074 -2.60568,-1.1184 c -1.43313,-0.61511 -2.84381,-1.11133 -3.13485,-1.10271 -0.29104,0.009 -1.65107,0.5119 -3.02227,1.11839 l -2.493103,1.10272 -1.159305,2.70881 -1.159305,2.7088 1.206691,2.84745 1.206692,2.84744 2.7103,1.10822 c 1.49066,0.60951 2.86304,1.05823 3.04973,0.99715 0.18669,-0.0611 1.37731,-0.54851 2.64583,-1.08315 z m -4.65195,-2.03089 c -2.05154,-0.83211 -2.43024,-1.26893 -3.222525,-3.7171 -0.301299,-0.93101 -0.264371,-1.18615 0.416483,-2.87742 0.664972,-1.65182 0.864622,-1.90602 1.816162,-2.3124 2.85131,-1.21773 2.83617,-1.2165 4.78461,-0.3884 1.77515,0.75444 1.7981,0.77743 2.65615,2.6603 l 0.86553,1.89928 -0.81399,1.9775 -0.81399,1.97749 -1.87858,0.78204 -1.87858,0.78204 z"
         id="path30279"
         inkscape:connector-curvature="0" />
      <path
         style="fill:#f9b92f;stroke-width:0.26458335"
         d="m 99.939634,137.41194 c -3.609137,-1.51694 -4.57347,-2.03333 -5.005254,-2.68025 -0.294155,-0.44072 -1.238489,-2.54489 -2.098522,-4.67594 l -1.563696,-3.87463 1.143429,-2.85745 c 0.628886,-1.57159 1.421846,-3.47489 1.762133,-4.22955 0.340288,-0.75466 0.622467,-1.52857 0.627066,-1.7198 0.0046,-0.19122 0.296544,-0.0203 0.648767,0.37993 0.352224,0.40018 0.735414,0.73268 0.851535,0.73888 0.116121,0.006 0.720919,0.45919 1.343996,1.00663 l 1.132867,0.99534 -1.21386,2.82557 -1.21386,2.82557 1.207358,2.84853 1.207357,2.84854 2.77574,1.11651 2.77575,1.11652 2.58018,-1.0921 c 1.4191,-0.60066 2.71695,-1.22215 2.88411,-1.3811 0.16716,-0.15895 0.78188,-1.44384 1.36604,-2.85532 l 1.06211,-2.56632 -1.21829,-2.91719 c -0.67006,-1.60446 -1.27171,-2.86377 -1.33702,-2.79847 -0.0653,0.0653 -0.42944,-0.0475 -0.8092,-0.25071 -1.03906,-0.55595 -3.15858,-1.50612 -3.53419,-1.58435 -0.18221,-0.0379 -0.54062,-0.15963 -0.79646,-0.27039 -0.27649,-0.1197 -0.82929,-0.0286 -1.3629,0.22462 -0.49376,0.2343 -0.98943,0.42601 -1.1015,0.42601 -0.11207,0 -0.44197,0.20836 -0.7331,0.46302 -0.29113,0.25466 -0.44884,0.32475 -0.35046,0.15577 0.0984,-0.16899 -0.30611,-0.0729 -0.89888,0.21346 l -1.077765,0.52072 -1.83376,-1.50026 c -1.008568,-0.82514 -1.83376,-1.57623 -1.83376,-1.66909 0,-0.14778 0.848294,-0.56288 4.101042,-2.00677 0.436563,-0.19379 1.448593,-0.61493 2.248963,-0.93586 0.80036,-0.32094 1.72431,-0.75421 2.05321,-0.96283 0.48697,-0.30888 0.70805,-0.31818 1.19063,-0.0501 0.32594,0.18107 0.65215,0.3442 0.72491,0.36251 0.0728,0.0183 0.54901,0.22135 1.05833,0.4512 2.85496,1.28841 5.38512,2.31238 5.71374,2.31238 0.73408,0 1.55862,1.39009 3.30359,5.56952 l 1.76828,4.23524 -1.84395,4.42419 c -1.01417,2.4333 -1.98241,4.56265 -2.15166,4.73189 -0.16924,0.16924 -2.28206,1.13057 -4.69516,2.13629 l -4.38746,1.82857 z m 2.582816,-6.5773 c -2.05154,-0.83211 -2.43024,-1.26893 -3.222525,-3.7171 -0.301299,-0.93101 -0.264371,-1.18615 0.416483,-2.87742 0.664972,-1.65182 0.864622,-1.90602 1.816162,-2.3124 2.85131,-1.21773 2.83617,-1.2165 4.78461,-0.3884 1.77515,0.75444 1.7981,0.77743 2.65615,2.6603 l 0.86553,1.89928 -0.81399,1.9775 -0.81399,1.97749 -1.87858,0.78204 -1.87858,0.78204 z"
         id="path30277"
         inkscape:connector-curvature="0" />
      <path
         style="fill:#f9a900;stroke-width:0.26458335"
         d="m 99.939634,137.41194 c -3.609137,-1.51694 -4.57347,-2.03333 -5.005254,-2.68025 -0.294155,-0.44072 -1.238276,-2.54436 -2.098048,-4.67477 l -1.563223,-3.87346 1.203669,-2.99091 c 0.662017,-1.645 1.473669,-3.60819 1.803671,-4.36264 l 0.600002,-1.37173 1.934392,1.58065 1.934392,1.58065 -0.67593,1.51087 c -0.371761,0.83098 -0.905892,2.08574 -1.186957,2.78836 l -0.511027,1.27748 1.196815,2.82356 1.196814,2.82356 2.77574,1.11651 2.77575,1.11652 2.58018,-1.0921 c 1.4191,-0.60066 2.71695,-1.22215 2.88411,-1.3811 0.16716,-0.15895 0.78188,-1.44384 1.36604,-2.85532 l 1.06211,-2.56632 -1.19371,-2.85833 -1.1937,-2.85834 -2.68588,-1.09778 -2.68587,-1.09777 -0.0757,-2.53955 c -0.0416,-1.39675 -0.0237,-2.53955 0.0399,-2.53955 0.47108,0 8.61001,3.59579 9.00973,3.98052 0.27896,0.26849 1.30673,2.40316 2.28395,4.7437 l 1.77675,4.25554 -1.84395,4.42419 c -1.01417,2.4333 -1.98241,4.56265 -2.15166,4.73189 -0.16924,0.16924 -2.28206,1.13057 -4.69516,2.13629 l -4.38746,1.82857 z m 2.582816,-6.5773 c -2.05154,-0.83211 -2.43024,-1.26893 -3.222525,-3.7171 -0.301299,-0.93101 -0.264371,-1.18615 0.416483,-2.87742 0.664972,-1.65182 0.864622,-1.90602 1.816162,-2.3124 2.85131,-1.21773 2.83617,-1.2165 4.78461,-0.3884 1.77515,0.75444 1.7981,0.77743 2.65615,2.6603 l 0.86553,1.89928 -0.81399,1.9775 -0.81399,1.97749 -1.87858,0.78204 -1.87858,0.78204 z"
         id="path30275"
         inkscape:connector-curvature="0" />
      <path
         style="fill:#598282;stroke-width:0.26458335"
         d="m 99.939634,137.41194 c -3.609137,-1.51694 -4.57347,-2.03333 -5.005254,-2.68025 -0.294155,-0.44072 -1.238276,-2.54436 -2.098048,-4.67477 l -1.563223,-3.87346 1.203669,-2.99091 c 0.662017,-1.645 1.473669,-3.60819 1.803671,-4.36264 l 0.600002,-1.37173 1.934392,1.58065 1.934392,1.58065 -0.67593,1.51087 c -0.371761,0.83098 -0.905892,2.08574 -1.186957,2.78836 l -0.511027,1.27748 1.196815,2.82356 1.196814,2.82356 2.77574,1.11651 2.77575,1.11652 2.58018,-1.0921 c 1.4191,-0.60066 2.71695,-1.22215 2.88411,-1.3811 0.16716,-0.15895 0.78281,-1.44607 1.36811,-2.86027 l 1.06417,-2.57126 -0.93055,-2.19124 c -0.5118,-1.20517 -1.03387,-2.45559 -1.16014,-2.77871 -0.20053,-0.51312 -0.005,-0.77242 1.54682,-2.04887 0.97703,-0.80377 1.88498,-1.47018 2.01767,-1.48092 0.13269,-0.0107 1.04141,1.89694 2.01937,4.23927 l 1.77811,4.2588 -1.84395,4.42419 c -1.01417,2.4333 -1.98241,4.56265 -2.15166,4.73189 -0.16924,0.16924 -2.28206,1.13057 -4.69516,2.13629 l -4.38746,1.82857 z m 2.582816,-6.5773 c -2.05154,-0.83211 -2.43024,-1.26893 -3.222525,-3.7171 -0.301299,-0.93101 -0.264371,-1.18615 0.416483,-2.87742 0.664972,-1.65182 0.864622,-1.90602 1.816162,-2.3124 2.85131,-1.21773 2.83617,-1.2165 4.78461,-0.3884 1.77515,0.75444 1.7981,0.77743 2.65615,2.6603 l 0.86553,1.89928 -0.81399,1.9775 -0.81399,1.97749 -1.87858,0.78204 -1.87858,0.78204 z"
         id="path30273"
         inkscape:connector-curvature="0" />
      <path
         style="fill:#447a8b;stroke-width:0.26458335"
         d="m 104.37799,136.57831 0.0757,-2.54105 2.51354,-1.04363 c 1.38245,-0.574 2.65662,-1.1867 2.8315,-1.36156 0.17487,-0.17486 0.79777,-1.47292 1.38421,-2.88457 l 1.06625,-2.56664 -1.16253,-2.7748 -1.16254,-2.7748 1.93414,-1.59987 1.93415,-1.59987 1.35738,3.22266 c 0.74656,1.77246 1.54896,3.76496 1.78311,4.42777 l 0.42572,1.20511 -1.66188,4.04761 c -0.91404,2.22618 -1.8783,4.32272 -2.1428,4.65898 -0.29576,0.376 -2.1066,1.28788 -4.70354,2.36854 -2.32245,0.96644 -4.29588,1.75716 -4.3854,1.75716 -0.0895,0 -0.12869,-1.14347 -0.087,-2.54104 z M 104.266,126.15682 c -0.0879,-6.08362 -0.33817,-5.64213 2.48933,-4.39168 1.42667,0.63095 1.49917,0.71372 2.20823,2.521 l 0.73314,1.86863 -0.73846,1.88221 c -0.7023,1.79002 -0.80477,1.91137 -2.09232,2.4777 -0.74463,0.32753 -1.61694,0.67765 -1.93846,0.77806 l -0.5846,0.18255 z m -7.437823,-6.59727 c -1.916604,-1.58542 -2.378411,-2.05178 -1.634873,-1.65099 0.560107,0.30192 3.532802,2.93397 3.307292,2.92831 -0.07276,-0.002 -0.825349,-0.57662 -1.672419,-1.27732 z"
         id="path30271"
         inkscape:connector-curvature="0" />
      <path
         style="fill:#4f7c7c;stroke-width:0.26458335"
         d="m 104.37799,136.57831 0.0757,-2.54105 2.51354,-1.04363 c 1.38245,-0.574 2.65662,-1.1867 2.8315,-1.36156 0.17487,-0.17486 0.7972,-1.47155 1.38295,-2.88154 l 1.06499,-2.56361 -1.05222,-2.52823 c -0.57872,-1.39052 -1.05222,-2.6837 -1.05222,-2.87372 0,-0.19003 0.82165,-1.02144 1.82588,-1.84759 l 1.82588,-1.5021 1.35659,3.22078 c 0.74612,1.77143 1.54817,3.76308 1.78232,4.42589 l 0.42572,1.20511 -1.66188,4.04761 c -0.91404,2.22618 -1.8783,4.32272 -2.1428,4.65898 -0.29576,0.376 -2.1066,1.28788 -4.70354,2.36854 -2.32245,0.96644 -4.29588,1.75716 -4.3854,1.75716 -0.0895,0 -0.12869,-1.14347 -0.087,-2.54104 z M 104.266,126.15682 c -0.0879,-6.08362 -0.33817,-5.64213 2.48933,-4.39168 1.42667,0.63095 1.49917,0.71372 2.20823,2.521 l 0.73314,1.86863 -0.73846,1.88221 c -0.7023,1.79002 -0.80477,1.91137 -2.09232,2.4777 -0.74463,0.32753 -1.61694,0.67765 -1.93846,0.77806 l -0.5846,0.18255 z"
         id="path30269"
         inkscape:connector-curvature="0" />
      <path
         style="fill:#316363;stroke-width:0.26458335"
         d="m 104.32143,136.63293 v -2.48641 l 2.81226,-1.18044 2.81226,-1.18044 1.17124,-2.74929 1.17124,-2.74929 -1.09236,-2.72029 c -0.6008,-1.49615 -1.05393,-2.82178 -1.00694,-2.94584 0.1992,-0.52596 3.44281,-2.98783 3.65086,-2.77096 0.12398,0.12925 0.96763,2.05406 1.87477,4.27735 l 1.64934,4.04235 -1.08505,2.57224 c -0.59678,1.41473 -1.39652,3.36493 -1.77721,4.33379 -0.38069,0.96886 -0.89226,1.94135 -1.13681,2.16108 -0.3623,0.32554 -8.5443,3.88257 -8.9308,3.88257 -0.062,0 -0.1128,-1.11889 -0.1128,-2.48642 z m 0,-10.47816 c 0,-2.91042 0.0477,-5.29167 0.10611,-5.29167 0.0584,0 0.90569,0.3411 1.88295,0.758 1.74719,0.74536 1.78994,0.78774 2.56183,2.53976 0.85375,1.93783 0.84592,2.15038 -0.16328,4.43237 -0.54927,1.24199 -0.80957,1.53087 -1.62053,1.79852 -0.53138,0.17537 -1.28206,0.48368 -1.66818,0.68514 -0.38611,0.20146 -0.79132,0.36702 -0.90046,0.36791 -0.10914,9e-4 -0.19844,-2.37962 -0.19844,-5.29003 z"
         id="path30267"
         inkscape:connector-curvature="0" />
    </g>
  </g>
</svg>
